<svg width="21" height="22" viewBox="0 0 21 22" fill="none" xmlns="http://www.w3.org/2000/svg">
<path d="M0.900015 8.47783C1.12085 7.55872 1.44203 6.70473 1.86357 5.91589C2.28511 5.12704 2.80699 4.40333 3.42923 3.74475C5.41446 1.64357 7.82655 0.539263 10.6655 0.431821C13.5045 0.324378 15.9659 1.25514 18.0499 3.2241L18.2132 3.37838L18.1424 0.462462L20.6933 0.37958L20.8701 7.66937L13.582 7.90618L13.5201 5.35475L16.4353 5.26003L16.272 5.10575C14.7168 3.63637 12.8727 2.94014 10.7396 3.01705C8.6065 3.09396 6.79179 3.92427 5.29546 5.508C4.91026 5.91569 4.57913 6.35962 4.30206 6.83979C4.025 7.31996 3.80199 7.83638 3.63305 8.38903L0.900015 8.47783ZM1.18391 21.1218L1.00709 13.832L8.29518 13.5952L8.35707 16.1466L5.44183 16.2414L5.60513 16.3956C7.16031 17.865 9.00446 18.5612 11.1376 18.4843C13.2707 18.4074 15.0854 17.5771 16.5817 15.9934C16.9669 15.5857 17.298 15.1418 17.5751 14.6616C17.8522 14.1814 18.0752 13.665 18.2441 13.1124L20.9771 13.0236C20.7563 13.9427 20.4351 14.7967 20.0136 15.5855C19.5921 16.3744 19.0702 17.0981 18.4479 17.7566C16.4627 19.8578 14.0506 20.9621 11.2117 21.0696C8.37271 21.177 5.91126 20.2463 3.82731 18.2773L3.66401 18.123L3.73474 21.0389L1.18391 21.1218Z" fill="white"/>
</svg>
