<svg width="20" height="25" viewBox="0 0 20 25" fill="none" xmlns="http://www.w3.org/2000/svg">
<path d="M3.23735 24.6663C2.59992 24.6663 2.05423 24.4414 1.6003 23.9918C1.14637 23.5422 0.919403 23.0017 0.919403 22.3704V10.891C0.919403 10.2596 1.14637 9.71915 1.6003 9.26954C2.05423 8.81994 2.59992 8.59513 3.23735 8.59513H4.39633V6.29926C4.39633 4.71128 4.96133 3.35767 6.09133 2.23843C7.22133 1.11919 8.58796 0.55957 10.1912 0.55957C11.7945 0.55957 13.1611 1.11919 14.2911 2.23843C15.4211 3.35767 15.9861 4.71128 15.9861 6.29926V8.59513H17.1451C17.7825 8.59513 18.3282 8.81994 18.7821 9.26954C19.236 9.71915 19.463 10.2596 19.463 10.891V22.3704C19.463 23.0017 19.236 23.5422 18.7821 23.9918C18.3282 24.4414 17.7825 24.6663 17.1451 24.6663H3.23735ZM3.23735 22.3704H17.1451V10.891H3.23735V22.3704ZM10.1912 18.9266C10.8286 18.9266 11.3743 18.7018 11.8283 18.2522C12.2822 17.8025 12.5092 17.2621 12.5092 16.6307C12.5092 15.9993 12.2822 15.4588 11.8283 15.0092C11.3743 14.5596 10.8286 14.3348 10.1912 14.3348C9.55377 14.3348 9.00808 14.5596 8.55415 15.0092C8.10022 15.4588 7.87325 15.9993 7.87325 16.6307C7.87325 17.2621 8.10022 17.8025 8.55415 18.2522C9.00808 18.7018 9.55377 18.9266 10.1912 18.9266ZM6.71428 8.59513H13.6681V6.29926C13.6681 5.34264 13.3301 4.52952 12.654 3.85989C11.978 3.19026 11.157 2.85544 10.1912 2.85544C9.22539 2.85544 8.40445 3.19026 7.72838 3.85989C7.05231 4.52952 6.71428 5.34264 6.71428 6.29926V8.59513Z" fill="white"/>
</svg>
