<svg width="28" height="20" viewBox="0 0 28 20" fill="none" xmlns="http://www.w3.org/2000/svg">
<path d="M6.98012 19.9945C5.07422 19.9945 3.44582 19.3528 2.09493 18.0696C0.744047 16.7863 0.0686035 15.2179 0.0686035 13.3643C0.0686035 11.7755 0.560787 10.3598 1.54515 9.11726C2.52952 7.87474 3.81758 7.08033 5.40932 6.73406C5.93292 4.86008 6.98012 3.34257 8.55092 2.18152C10.1217 1.02047 11.902 0.439941 13.8916 0.439941C16.3421 0.439941 18.4208 1.26999 20.1277 2.93009C21.8346 4.59019 22.6881 6.61184 22.6881 8.99505C24.1332 9.158 25.3323 9.76399 26.2852 10.813C27.2382 11.862 27.7147 13.0893 27.7147 14.4948C27.7147 16.0225 27.1649 17.321 26.0653 18.3904C24.9658 19.4598 23.6306 19.9945 22.0598 19.9945H15.1483C14.4571 19.9945 13.8655 19.7551 13.3733 19.2765C12.8811 18.7978 12.635 18.2223 12.635 17.5502V11.256L10.6244 13.1504L8.86508 11.4394L13.8916 6.55073L18.9182 11.4394L17.1589 13.1504L15.1483 11.256V17.5502H22.0598C22.9394 17.5502 23.6829 17.2548 24.2903 16.6641C24.8977 16.0734 25.2014 15.3503 25.2014 14.4948C25.2014 13.6392 24.8977 12.9161 24.2903 12.3254C23.6829 11.7347 22.9394 11.4394 22.0598 11.4394H20.1748V8.99505C20.1748 7.3044 19.5622 5.86327 18.337 4.67166C17.1118 3.48006 15.63 2.88426 13.8916 2.88426C12.1533 2.88426 10.6715 3.48006 9.44627 4.67166C8.22105 5.86327 7.60844 7.3044 7.60844 8.99505H6.98012C5.76537 8.99505 4.72864 9.41262 3.86994 10.2478C3.01123 11.0829 2.58188 12.0912 2.58188 13.2726C2.58188 14.454 3.01123 15.4623 3.86994 16.2974C4.72864 17.1326 5.76537 17.5502 6.98012 17.5502H10.1217V19.9945H6.98012Z" fill="white"/>
</svg>
